<svg id="svg" version="1.1" xmlns="http://www.w3.org/2000/svg" xmlns:xlink="http://www.w3.org/1999/xlink" width="400" height="400" viewBox="0, 0, 400,400"><g id="svgg"><path id="path0" d="M181.244 12.032 C 178.959 12.208,176.898 12.542,176.664 12.776 C 176.431 13.009,175.866 13.200,175.409 13.200 C 174.952 13.200,174.133 13.515,173.589 13.900 C 172.793 14.463,171.039 14.693,164.600 15.076 C 155.171 15.636,153.875 15.833,152.963 16.841 C 152.425 17.435,151.722 17.600,149.724 17.600 C 148.240 17.600,146.801 17.832,146.286 18.155 C 145.799 18.460,144.252 18.832,142.849 18.981 C 141.269 19.148,139.883 19.558,139.207 20.058 C 138.503 20.579,137.207 20.947,135.557 21.094 C 134.151 21.220,132.640 21.546,132.200 21.820 C 131.760 22.093,130.950 22.450,130.400 22.613 C 129.850 22.777,129.001 23.221,128.513 23.602 C 127.985 24.014,126.515 24.404,124.874 24.565 C 122.430 24.806,121.972 24.991,120.782 26.218 C 119.875 27.154,119.077 27.600,118.309 27.600 C 116.869 27.600,113.060 29.359,112.446 30.308 C 112.311 30.517,110.850 30.946,109.200 31.261 C 106.475 31.782,106.145 31.949,105.600 33.082 C 105.112 34.098,104.687 34.379,103.327 34.586 C 102.109 34.772,101.223 35.271,100.074 36.421 C 99.113 37.381,98.118 38.000,97.535 38.000 C 96.613 38.000,93.600 40.485,93.600 41.246 C 93.600 41.441,93.174 41.600,92.654 41.600 C 91.705 41.600,89.693 42.897,89.063 43.916 C 88.878 44.215,87.931 44.801,86.959 45.217 C 85.987 45.634,84.699 46.450,84.096 47.030 C 83.493 47.610,82.234 48.434,81.297 48.862 C 80.086 49.415,79.427 50.039,79.017 51.020 C 78.654 51.890,78.167 52.400,77.699 52.400 C 77.291 52.400,76.337 53.045,75.578 53.834 C 74.820 54.623,73.718 55.521,73.128 55.830 C 72.539 56.139,71.942 56.753,71.801 57.196 C 71.644 57.691,71.196 58.000,70.635 58.000 C 69.591 58.000,68.400 59.142,68.400 60.141 C 68.400 60.515,67.905 61.008,67.301 61.238 C 65.792 61.811,64.800 62.778,64.800 63.675 C 64.800 64.087,64.485 64.522,64.100 64.641 C 62.702 65.073,62.189 65.482,61.600 66.630 C 60.859 68.073,60.499 68.503,56.225 73.026 C 54.076 75.301,52.800 76.978,52.800 77.526 C 52.800 78.007,52.620 78.400,52.400 78.400 C 52.180 78.400,52.000 78.580,52.000 78.800 C 52.000 79.019,51.292 79.928,50.427 80.820 C 49.562 81.711,48.737 82.977,48.593 83.634 C 48.445 84.304,47.864 85.116,47.265 85.486 C 45.784 86.401,45.200 87.195,45.200 88.295 C 45.200 89.184,44.465 90.100,42.470 91.696 C 41.991 92.079,41.600 92.842,41.600 93.391 C 41.600 94.150,41.271 94.527,40.228 94.963 C 38.861 95.534,38.008 97.228,38.002 99.385 C 38.001 99.817,37.274 100.910,36.386 101.814 C 35.265 102.956,34.696 103.937,34.522 105.029 C 34.383 105.893,33.940 106.835,33.535 107.123 C 33.131 107.410,32.800 107.862,32.800 108.126 C 32.800 108.391,32.455 108.823,32.034 109.086 C 31.468 109.439,31.196 110.231,30.995 112.107 C 30.761 114.289,30.531 114.838,29.369 115.974 C 28.336 116.983,27.954 117.756,27.759 119.223 C 27.575 120.612,27.143 121.542,26.211 122.560 C 25.149 123.719,24.826 124.529,24.402 127.086 C 24.118 128.799,23.662 130.470,23.390 130.800 C 23.118 131.130,22.762 131.850,22.600 132.400 C 22.438 132.950,22.076 133.670,21.796 134.000 C 21.516 134.330,21.100 136.021,20.873 137.758 C 20.645 139.495,20.277 141.029,20.055 141.166 C 19.400 141.571,18.800 143.530,18.800 145.266 C 18.800 146.153,18.547 147.446,18.237 148.140 C 17.928 148.833,17.577 150.468,17.459 151.773 C 17.317 153.328,16.939 154.556,16.361 155.338 C 15.566 156.413,15.440 157.277,15.080 164.134 C 14.696 171.439,14.637 171.801,13.584 173.369 C 11.831 175.978,11.601 180.057,11.595 208.516 C 11.591 234.005,11.929 242.544,13.042 245.060 C 13.349 245.754,13.600 246.519,13.600 246.760 C 13.600 247.002,13.849 247.200,14.154 247.200 C 14.608 247.200,14.754 249.287,14.961 258.700 C 15.193 269.284,15.732 275.902,16.400 276.400 C 17.219 277.010,17.601 279.895,17.613 285.560 C 17.623 290.412,17.756 291.973,18.213 292.576 C 18.665 293.175,18.807 294.734,18.829 299.376 C 18.863 306.310,19.226 309.522,20.033 310.020 C 20.980 310.606,20.858 330.429,19.900 331.488 C 19.364 332.081,19.143 333.283,18.953 336.631 C 18.817 339.034,18.485 341.360,18.215 341.800 C 17.945 342.240,17.621 343.378,17.496 344.329 C 17.371 345.280,16.803 346.730,16.234 347.551 C 15.588 348.483,15.200 349.585,15.200 350.488 C 15.200 351.647,14.844 352.315,13.400 353.865 C 12.410 354.929,11.600 356.074,11.600 356.410 C 11.600 357.014,9.411 359.200,8.806 359.200 C 8.634 359.200,8.399 359.560,8.284 360.000 C 8.167 360.449,7.738 360.800,7.308 360.800 C 6.886 360.800,5.834 361.514,4.970 362.387 C 3.811 363.558,2.955 364.041,1.700 364.232 L 0.000 364.491 0.000 369.045 C 0.000 371.550,0.135 373.600,0.300 373.600 C 0.465 373.601,1.123 374.051,1.762 374.600 C 2.401 375.150,3.216 375.600,3.573 375.600 C 3.930 375.600,4.649 375.899,5.171 376.265 C 6.755 377.374,9.756 378.797,10.517 378.798 C 10.911 378.799,11.631 379.177,12.117 379.638 C 13.146 380.616,14.492 381.199,15.726 381.202 C 16.207 381.204,17.116 381.474,17.746 381.802 C 18.376 382.131,19.149 382.400,19.463 382.400 C 19.778 382.400,20.499 382.830,21.065 383.355 C 22.232 384.438,23.379 384.687,28.900 385.058 C 31.045 385.202,32.800 385.452,32.800 385.612 C 32.800 385.773,33.821 386.421,35.068 387.052 L 37.337 388.200 46.786 388.200 C 55.112 388.200,56.362 388.117,57.304 387.500 C 57.891 387.115,58.650 386.800,58.990 386.800 C 59.330 386.800,59.916 386.440,60.293 386.000 C 60.816 385.389,61.501 385.192,63.189 385.166 C 66.902 385.110,70.076 384.583,70.552 383.945 C 71.075 383.243,75.260 381.200,76.175 381.200 C 76.519 381.200,77.160 380.840,77.600 380.400 C 78.040 379.960,78.642 379.600,78.938 379.600 C 79.234 379.600,79.796 379.247,80.186 378.815 C 80.577 378.383,81.550 377.818,82.348 377.560 C 83.649 377.138,85.275 375.910,88.433 372.964 C 89.002 372.434,89.739 372.000,90.071 372.000 C 90.855 372.000,92.000 370.729,92.000 369.859 C 92.000 369.485,92.495 368.992,93.099 368.762 C 94.583 368.198,95.600 367.226,95.600 366.371 C 95.600 365.953,96.211 365.367,97.100 364.933 C 98.110 364.439,98.645 363.885,98.736 363.235 C 98.811 362.704,99.498 361.624,100.263 360.835 C 101.027 360.046,102.062 358.500,102.562 357.400 C 103.062 356.300,103.770 355.153,104.135 354.851 C 104.501 354.549,104.800 353.874,104.800 353.351 C 104.800 351.927,106.213 352.133,107.880 353.800 C 108.650 354.570,109.532 355.200,109.840 355.200 C 110.148 355.200,110.400 355.479,110.400 355.819 C 110.400 356.687,112.422 358.372,113.481 358.387 C 113.969 358.394,114.684 358.864,115.081 359.438 C 116.408 361.354,117.194 362.000,118.200 362.000 C 118.835 362.000,119.200 362.225,119.200 362.618 C 119.200 363.676,120.997 365.095,122.699 365.383 C 123.984 365.600,124.426 365.897,124.798 366.795 C 125.288 367.979,126.408 368.596,128.827 369.015 C 129.612 369.151,130.782 369.744,131.427 370.334 C 132.592 371.399,140.599 375.615,141.439 375.605 C 141.680 375.602,142.293 375.960,142.800 376.400 C 143.307 376.840,144.117 377.200,144.599 377.200 C 145.081 377.200,145.782 377.538,146.155 377.951 C 146.548 378.385,147.652 378.810,148.774 378.959 C 149.840 379.100,151.170 379.576,151.729 380.016 C 152.372 380.522,153.788 380.946,155.589 381.172 C 157.153 381.369,158.650 381.702,158.916 381.914 C 159.182 382.126,160.242 382.421,161.272 382.570 C 162.301 382.719,163.594 383.195,164.145 383.628 C 165.298 384.535,170.504 385.173,176.900 385.190 C 180.073 385.198,180.800 385.310,180.800 385.792 C 180.800 386.118,181.295 386.503,181.900 386.648 C 182.505 386.792,183.189 387.058,183.420 387.238 C 186.045 389.284,214.836 388.521,217.658 386.331 C 218.989 385.298,219.405 385.199,222.458 385.193 C 227.786 385.182,232.514 384.555,234.238 383.631 C 235.089 383.175,236.419 382.695,237.193 382.566 C 237.967 382.436,239.167 382.076,239.860 381.765 C 240.554 381.454,241.848 381.200,242.738 381.200 C 243.922 381.200,244.511 380.977,244.937 380.369 C 245.368 379.753,246.282 379.415,248.460 379.066 C 251.220 378.624,253.406 377.644,254.106 376.535 C 254.274 376.268,255.785 375.820,257.463 375.538 C 260.328 375.056,260.547 374.946,261.050 373.742 C 261.542 372.564,261.775 372.438,263.893 372.197 C 267.197 371.821,267.489 371.694,267.926 370.441 C 268.241 369.537,268.696 369.220,270.244 368.831 C 271.484 368.518,272.777 367.786,273.876 366.773 C 274.814 365.908,275.912 365.200,276.316 365.200 C 277.195 365.200,278.642 363.928,278.982 362.855 C 279.140 362.358,279.753 361.985,280.706 361.806 C 282.836 361.407,283.609 360.893,284.071 359.569 C 284.369 358.715,284.737 358.400,285.439 358.400 C 286.578 358.400,288.000 357.103,288.000 356.063 C 288.000 355.550,288.486 355.181,289.600 354.847 C 290.480 354.584,291.200 354.171,291.200 353.930 C 291.200 353.349,293.107 351.600,293.741 351.600 C 294.574 351.600,295.200 352.497,295.200 353.693 C 295.200 354.339,295.462 354.926,295.811 355.060 C 296.147 355.188,297.079 356.641,297.882 358.288 C 298.765 360.099,299.700 361.445,300.249 361.695 C 300.790 361.942,301.206 362.532,301.279 363.154 C 301.366 363.908,301.819 364.405,302.900 364.933 C 303.789 365.367,304.400 365.953,304.400 366.371 C 304.400 367.226,305.417 368.198,306.901 368.762 C 307.559 369.012,308.000 369.480,308.000 369.928 C 308.000 370.771,309.186 372.000,309.998 372.000 C 310.293 372.000,310.998 372.439,311.567 372.975 C 314.595 375.833,316.868 377.551,317.929 377.784 C 318.582 377.928,319.434 378.395,319.821 378.823 C 320.207 379.250,320.766 379.600,321.062 379.600 C 321.358 379.600,321.960 379.960,322.400 380.400 C 322.840 380.840,323.481 381.200,323.825 381.200 C 324.715 381.200,328.776 383.176,329.621 384.021 C 330.160 384.560,331.308 384.800,334.388 385.019 C 338.101 385.282,338.539 385.400,339.556 386.418 C 342.662 389.523,367.200 388.800,367.200 385.603 C 367.200 385.448,368.955 385.202,371.100 385.058 C 376.621 384.687,377.768 384.438,378.935 383.355 C 379.501 382.830,380.222 382.400,380.537 382.400 C 380.851 382.400,381.624 382.131,382.254 381.802 C 382.884 381.474,383.793 381.204,384.274 381.202 C 385.508 381.199,386.854 380.616,387.883 379.638 C 388.369 379.177,389.089 378.799,389.483 378.798 C 390.244 378.797,393.245 377.374,394.829 376.265 C 395.351 375.899,396.070 375.600,396.427 375.600 C 396.784 375.600,397.599 375.150,398.238 374.600 C 398.877 374.051,399.535 373.601,399.700 373.600 C 399.865 373.600,400.000 371.550,400.000 369.045 L 400.000 364.491 398.300 364.232 C 397.045 364.041,396.189 363.558,395.030 362.387 C 394.166 361.514,393.114 360.800,392.692 360.800 C 392.262 360.800,391.833 360.449,391.716 360.000 C 391.601 359.560,391.366 359.200,391.194 359.200 C 390.580 359.200,388.400 357.009,388.400 356.392 C 388.400 356.045,387.668 355.000,386.774 354.069 C 385.531 352.776,385.077 351.928,384.847 350.471 C 384.681 349.422,384.139 348.015,383.643 347.344 C 383.146 346.672,382.636 345.330,382.508 344.361 C 382.380 343.393,382.055 342.240,381.785 341.800 C 381.515 341.360,381.183 339.034,381.047 336.631 C 380.857 333.283,380.636 332.081,380.100 331.488 C 379.142 330.429,379.020 310.606,379.967 310.020 C 380.774 309.522,381.137 306.310,381.171 299.376 C 381.193 294.734,381.335 293.175,381.787 292.576 C 382.244 291.973,382.377 290.412,382.387 285.560 C 382.399 279.921,382.778 277.029,383.589 276.400 C 384.292 275.855,384.797 269.871,385.047 259.100 C 385.270 249.539,385.430 247.200,385.862 247.200 C 386.158 247.200,386.400 247.002,386.400 246.760 C 386.400 246.519,386.651 245.754,386.958 245.060 C 388.071 242.544,388.409 234.005,388.405 208.516 C 388.399 179.810,388.177 175.991,386.356 173.280 C 385.333 171.757,385.199 171.207,385.193 168.480 C 385.180 162.096,384.506 156.511,383.601 155.287 C 383.062 154.558,382.679 153.288,382.541 151.773 C 382.423 150.468,382.072 148.833,381.763 148.140 C 381.453 147.446,381.200 146.153,381.200 145.266 C 381.200 143.530,380.600 141.571,379.945 141.166 C 379.723 141.029,379.355 139.495,379.127 137.758 C 378.900 136.021,378.484 134.330,378.204 134.000 C 377.924 133.670,377.562 132.950,377.400 132.400 C 377.238 131.850,376.882 131.130,376.610 130.800 C 376.338 130.470,375.882 128.799,375.598 127.086 C 375.174 124.529,374.851 123.719,373.789 122.560 C 372.857 121.542,372.425 120.612,372.241 119.223 C 372.046 117.756,371.664 116.983,370.631 115.974 C 369.469 114.838,369.239 114.289,369.005 112.107 C 368.804 110.231,368.532 109.439,367.966 109.086 C 367.545 108.823,367.200 108.391,367.200 108.126 C 367.200 107.862,366.869 107.410,366.465 107.123 C 366.060 106.835,365.617 105.893,365.478 105.029 C 365.304 103.937,364.735 102.956,363.614 101.814 C 362.726 100.910,361.999 99.817,361.998 99.385 C 361.992 97.228,361.139 95.534,359.772 94.963 C 358.729 94.527,358.400 94.150,358.400 93.391 C 358.400 92.842,358.009 92.079,357.530 91.696 C 355.535 90.100,354.800 89.184,354.800 88.295 C 354.800 87.195,354.216 86.401,352.735 85.486 C 352.136 85.116,351.555 84.304,351.407 83.634 C 351.263 82.977,350.438 81.711,349.573 80.820 C 348.708 79.928,348.000 79.019,348.000 78.800 C 348.000 78.580,347.820 78.400,347.600 78.400 C 347.380 78.400,347.200 78.007,347.200 77.526 C 347.200 76.978,345.924 75.301,343.775 73.026 C 339.501 68.503,339.141 68.073,338.400 66.630 C 337.811 65.482,337.298 65.073,335.900 64.641 C 335.515 64.522,335.200 64.087,335.200 63.675 C 335.200 62.778,334.208 61.811,332.699 61.238 C 332.041 60.988,331.600 60.520,331.600 60.072 C 331.600 59.105,330.371 58.000,329.295 58.000 C 328.804 58.000,328.348 57.666,328.199 57.196 C 328.058 56.753,327.461 56.139,326.872 55.830 C 326.282 55.521,325.180 54.623,324.422 53.834 C 323.663 53.045,322.709 52.400,322.301 52.400 C 321.833 52.400,321.346 51.890,320.983 51.020 C 320.573 50.039,319.914 49.415,318.703 48.862 C 317.766 48.434,316.507 47.610,315.904 47.030 C 315.301 46.450,314.013 45.634,313.041 45.217 C 312.069 44.801,311.122 44.215,310.937 43.916 C 310.307 42.897,308.295 41.600,307.346 41.600 C 306.826 41.600,306.400 41.441,306.400 41.246 C 306.400 40.485,303.387 38.000,302.465 38.000 C 301.882 38.000,300.887 37.381,299.926 36.421 C 298.777 35.271,297.891 34.772,296.673 34.586 C 295.313 34.379,294.888 34.098,294.400 33.082 C 293.855 31.949,293.525 31.782,290.800 31.261 C 289.150 30.946,287.689 30.517,287.554 30.308 C 286.940 29.359,283.131 27.600,281.691 27.600 C 280.923 27.600,280.125 27.154,279.218 26.218 C 278.028 24.991,277.570 24.806,275.126 24.565 C 273.485 24.404,272.015 24.014,271.487 23.602 C 270.999 23.221,270.150 22.777,269.600 22.613 C 269.050 22.450,268.240 22.093,267.800 21.820 C 267.360 21.546,265.849 21.220,264.443 21.094 C 262.793 20.947,261.497 20.579,260.793 20.058 C 260.117 19.558,258.731 19.148,257.151 18.981 C 255.748 18.832,254.201 18.460,253.714 18.155 C 253.199 17.832,251.760 17.600,250.276 17.600 C 248.278 17.600,247.575 17.435,247.037 16.841 C 246.125 15.833,244.829 15.636,235.400 15.076 C 228.961 14.693,227.207 14.463,226.411 13.900 C 225.867 13.515,225.048 13.200,224.591 13.200 C 224.134 13.200,223.578 13.018,223.356 12.796 C 222.297 11.737,192.212 11.192,181.244 12.032 M143.892 101.215 C 143.772 102.543,143.432 103.921,143.137 104.276 C 142.351 105.223,142.356 125.580,143.142 126.529 C 143.506 126.968,143.814 129.318,144.081 133.691 C 144.450 139.731,144.548 140.274,145.439 141.222 C 145.968 141.784,146.400 142.511,146.400 142.837 C 146.400 143.164,146.760 144.137,147.200 145.000 C 147.640 145.863,148.000 147.096,148.000 147.740 C 148.000 148.550,148.493 149.446,149.600 150.646 C 150.480 151.601,151.200 152.690,151.200 153.065 C 151.200 153.954,152.754 155.600,153.593 155.600 C 153.953 155.600,154.596 155.867,155.024 156.194 C 155.451 156.520,156.475 156.977,157.300 157.209 C 158.125 157.441,158.800 157.804,158.800 158.015 C 158.800 158.260,185.840 158.400,233.157 158.400 C 303.604 158.400,307.529 158.437,307.785 159.100 C 307.934 159.485,308.159 163.760,308.286 168.600 C 308.454 175.036,308.661 177.612,309.058 178.189 C 309.356 178.623,309.600 179.270,309.600 179.627 C 309.600 179.984,309.939 180.583,310.353 180.958 C 310.885 181.439,311.159 182.362,311.284 184.096 C 311.420 185.970,311.641 186.652,312.219 186.976 C 312.635 187.209,313.472 187.940,314.078 188.600 C 314.685 189.260,315.486 190.070,315.859 190.400 C 316.232 190.730,317.291 191.675,318.213 192.500 C 319.342 193.510,320.272 194.000,321.060 194.000 C 321.704 194.000,322.937 194.360,323.800 194.800 C 325.778 195.809,331.730 195.930,332.976 194.987 C 333.404 194.664,334.045 194.400,334.401 194.400 C 334.757 194.400,335.436 194.040,335.908 193.600 C 336.556 192.996,337.319 192.800,339.019 192.800 L 341.272 192.800 344.636 196.272 C 347.328 199.050,348.005 199.989,348.025 200.972 C 348.089 204.170,349.011 207.237,350.306 208.561 L 351.600 209.885 351.600 216.854 C 351.600 223.365,351.547 223.861,350.800 224.400 C 350.360 224.717,350.000 225.418,350.000 225.957 C 350.000 226.496,349.719 227.248,349.375 227.627 C 348.709 228.363,348.021 232.200,348.008 235.253 C 348.001 236.767,347.853 237.145,347.200 237.316 C 346.760 237.431,346.400 237.812,346.400 238.163 C 346.400 238.513,346.067 239.133,345.659 239.541 C 345.241 239.959,344.800 241.178,344.646 242.341 C 344.478 243.602,344.175 244.400,343.862 244.400 C 342.884 244.400,341.675 245.969,341.401 247.594 C 341.201 248.777,340.637 249.724,339.362 251.017 C 338.228 252.168,337.600 253.160,337.600 253.802 C 337.600 254.600,337.399 254.800,336.600 254.800 C 335.404 254.800,334.000 256.090,334.000 257.188 C 334.000 257.784,333.539 258.109,332.100 258.523 C 330.756 258.910,329.966 259.431,329.400 260.305 C 328.842 261.167,328.170 261.617,327.177 261.792 C 326.394 261.931,325.134 262.574,324.377 263.221 C 323.620 263.869,322.631 264.399,322.180 264.399 C 321.729 264.400,321.183 264.577,320.966 264.794 C 320.749 265.011,319.608 265.371,318.431 265.594 C 314.759 266.290,308.317 272.643,307.793 276.083 C 307.577 277.499,307.309 277.905,306.265 278.400 C 305.447 278.788,304.852 279.459,304.580 280.300 C 304.349 281.015,303.944 281.816,303.680 282.080 C 303.416 282.344,303.200 282.929,303.199 283.380 C 303.199 283.831,302.659 284.830,302.000 285.600 C 301.341 286.370,300.801 287.219,300.801 287.486 C 300.800 287.753,300.442 288.163,300.005 288.397 C 299.567 288.632,299.109 289.223,298.986 289.712 C 298.863 290.200,298.051 291.307,297.181 292.170 C 296.311 293.034,295.600 294.071,295.600 294.475 C 295.600 294.879,294.702 296.152,293.604 297.305 C 292.506 298.457,291.606 299.676,291.604 300.012 C 291.602 300.349,291.050 300.832,290.378 301.086 C 289.514 301.412,288.972 302.016,288.526 303.152 C 288.042 304.384,287.652 304.785,286.848 304.878 C 286.053 304.971,285.693 305.332,285.356 306.373 C 285.112 307.127,284.530 308.117,284.062 308.573 C 282.277 310.307,281.440 311.155,276.233 316.500 C 273.287 319.525,270.681 322.000,270.443 322.000 C 270.205 322.000,269.570 322.697,269.032 323.550 C 268.475 324.431,267.615 325.210,267.038 325.355 C 266.480 325.495,265.832 325.967,265.597 326.405 C 265.363 326.842,264.914 327.200,264.599 327.200 C 264.284 327.200,263.115 328.010,262.000 329.000 C 260.885 329.990,259.779 330.800,259.543 330.800 C 258.873 330.800,255.270 333.240,255.035 333.853 C 254.920 334.154,254.438 334.400,253.966 334.400 C 253.489 334.400,252.416 335.112,251.554 336.000 C 250.646 336.936,249.626 337.600,249.098 337.600 C 247.305 337.600,245.556 338.376,244.198 339.775 C 243.087 340.919,242.512 341.200,241.285 341.200 C 240.282 341.200,239.289 341.544,238.400 342.200 C 237.655 342.750,236.818 343.200,236.542 343.200 C 236.266 343.200,235.896 343.436,235.720 343.725 C 235.536 344.027,233.933 344.442,231.955 344.700 C 228.776 345.115,226.099 346.248,225.209 347.555 C 225.094 347.723,221.781 348.066,217.848 348.316 C 212.464 348.658,210.528 348.923,210.016 349.385 C 209.643 349.723,208.896 350.000,208.357 350.000 C 207.818 350.000,207.117 350.360,206.800 350.800 C 205.915 352.028,194.085 352.028,193.200 350.800 C 192.883 350.360,192.182 350.000,191.643 350.000 C 191.104 350.000,190.357 349.723,189.984 349.385 C 189.472 348.923,187.536 348.658,182.152 348.316 C 178.219 348.066,174.906 347.723,174.791 347.555 C 173.901 346.248,171.224 345.115,168.045 344.700 C 166.067 344.442,164.464 344.027,164.280 343.725 C 164.104 343.436,163.734 343.200,163.458 343.200 C 163.182 343.200,162.345 342.750,161.600 342.200 C 160.711 341.544,159.718 341.200,158.715 341.200 C 157.488 341.200,156.913 340.919,155.802 339.775 C 154.444 338.376,152.695 337.600,150.902 337.600 C 150.374 337.600,149.354 336.936,148.446 336.000 C 147.584 335.112,146.511 334.400,146.034 334.400 C 145.562 334.400,145.080 334.154,144.965 333.853 C 144.730 333.240,141.127 330.800,140.457 330.800 C 140.221 330.800,139.115 329.990,138.000 329.000 C 136.885 328.010,135.716 327.200,135.401 327.200 C 135.086 327.200,134.637 326.842,134.403 326.405 C 134.168 325.967,133.520 325.495,132.962 325.355 C 132.385 325.210,131.525 324.431,130.968 323.550 C 130.430 322.697,129.795 322.000,129.557 322.000 C 129.319 322.000,126.713 319.525,123.767 316.500 C 118.560 311.155,117.723 310.307,115.938 308.573 C 115.470 308.117,114.888 307.127,114.644 306.373 C 114.307 305.332,113.947 304.971,113.152 304.878 C 112.348 304.785,111.958 304.384,111.474 303.152 C 111.028 302.016,110.486 301.412,109.622 301.086 C 108.950 300.832,108.398 300.349,108.396 300.012 C 108.394 299.676,107.494 298.457,106.396 297.305 C 105.298 296.152,104.400 294.879,104.400 294.475 C 104.400 294.071,103.689 293.034,102.819 292.170 C 101.949 291.307,101.137 290.200,101.014 289.712 C 100.891 289.223,100.433 288.632,99.995 288.397 C 99.558 288.163,99.200 287.753,99.199 287.486 C 99.199 287.219,98.659 286.370,98.000 285.600 C 97.341 284.830,96.801 283.831,96.801 283.380 C 96.800 282.929,96.584 282.344,96.320 282.080 C 96.056 281.816,95.651 281.015,95.420 280.300 C 95.148 279.459,94.553 278.788,93.735 278.400 C 92.691 277.905,92.423 277.499,92.207 276.083 C 91.886 273.971,89.757 271.258,85.555 267.604 C 84.194 266.421,83.150 265.894,81.569 265.594 C 80.392 265.371,79.251 265.011,79.034 264.794 C 78.817 264.577,78.271 264.400,77.820 264.399 C 77.369 264.399,76.380 263.869,75.623 263.221 C 74.866 262.574,73.606 261.931,72.823 261.792 C 71.830 261.617,71.158 261.167,70.600 260.305 C 70.034 259.431,69.244 258.910,67.900 258.523 C 66.461 258.109,66.000 257.784,66.000 257.188 C 66.000 256.090,64.596 254.800,63.400 254.800 C 62.601 254.800,62.400 254.600,62.400 253.802 C 62.400 253.160,61.772 252.168,60.638 251.017 C 59.363 249.724,58.799 248.777,58.599 247.594 C 58.325 245.969,57.116 244.400,56.138 244.400 C 55.825 244.400,55.522 243.602,55.354 242.341 C 55.200 241.178,54.759 239.959,54.341 239.541 C 53.933 239.133,53.600 238.513,53.600 238.163 C 53.600 237.812,53.240 237.431,52.800 237.316 C 52.136 237.142,51.996 236.758,51.974 235.053 C 51.909 229.989,51.044 226.149,49.682 224.877 L 48.400 223.679 48.400 216.782 L 48.400 209.885 49.694 208.561 C 50.989 207.237,51.911 204.170,51.975 200.972 C 51.995 199.989,52.672 199.050,55.364 196.272 L 58.728 192.800 60.981 192.800 C 62.681 192.800,63.444 192.996,64.092 193.600 C 64.564 194.040,65.243 194.400,65.599 194.400 C 65.955 194.400,66.596 194.664,67.024 194.987 C 68.270 195.930,74.222 195.809,76.200 194.800 C 77.063 194.360,78.296 194.000,78.940 194.000 C 79.728 194.000,80.658 193.510,81.787 192.500 C 82.709 191.675,83.768 190.730,84.141 190.400 C 84.514 190.070,85.315 189.260,85.922 188.600 C 86.528 187.940,87.365 187.209,87.781 186.976 C 88.359 186.652,88.580 185.970,88.716 184.096 C 88.841 182.362,89.115 181.439,89.647 180.958 C 90.061 180.583,90.400 179.984,90.400 179.627 C 90.400 179.270,90.644 178.623,90.942 178.189 C 91.339 177.612,91.546 175.036,91.714 168.600 C 91.841 163.760,92.066 159.485,92.215 159.100 C 92.465 158.454,93.455 158.399,104.943 158.387 C 115.219 158.377,117.535 158.273,118.170 157.792 C 118.594 157.471,119.794 157.096,120.838 156.957 C 124.440 156.479,125.324 154.998,125.655 148.888 C 125.807 146.090,125.946 143.602,125.965 143.359 C 125.984 143.117,126.574 142.318,127.275 141.585 C 128.681 140.113,129.136 138.311,129.176 134.058 C 129.196 131.964,129.377 131.294,130.206 130.258 C 130.759 129.566,131.362 128.812,131.545 128.583 C 131.728 128.353,131.975 126.952,132.094 125.469 C 132.254 123.469,132.575 122.389,133.337 121.286 C 133.901 120.469,134.491 118.992,134.648 118.005 C 134.805 117.018,135.173 115.970,135.466 115.677 C 135.760 115.383,136.000 114.850,136.000 114.493 C 136.000 114.135,136.461 113.178,137.024 112.365 C 137.695 111.397,138.129 110.112,138.280 108.643 C 138.456 106.945,138.668 106.399,139.156 106.397 C 139.958 106.394,141.600 104.045,141.600 102.901 C 141.600 101.242,142.952 98.895,143.956 98.813 C 144.041 98.806,144.013 99.887,143.892 101.215 M145.752 181.162 C 144.146 181.359,143.348 181.734,142.051 182.906 C 141.131 183.738,139.981 184.400,139.459 184.400 C 137.636 184.400,135.929 185.277,135.427 186.470 C 135.158 187.110,134.326 187.941,133.578 188.317 C 132.403 188.907,132.135 189.331,131.607 191.432 C 131.212 193.005,130.573 194.312,129.798 195.132 C 127.478 197.586,126.882 209.557,128.640 218.387 C 128.944 219.915,129.634 220.800,130.520 220.800 C 130.890 220.800,131.195 221.411,131.370 222.500 C 131.645 224.225,133.266 226.400,134.275 226.400 C 134.564 226.400,134.805 226.715,134.811 227.100 C 134.817 227.485,135.461 228.250,136.242 228.800 C 137.022 229.350,138.124 230.205,138.689 230.700 C 139.445 231.362,140.218 231.600,141.612 231.600 C 143.170 231.600,143.544 231.742,143.716 232.400 C 143.831 232.840,144.206 233.200,144.550 233.200 C 144.894 233.200,145.909 233.582,146.806 234.050 C 149.816 235.619,156.000 234.328,156.000 232.130 C 156.000 231.770,156.567 231.600,157.774 231.600 C 160.787 231.600,167.520 226.190,168.138 223.273 C 168.263 222.683,168.927 221.610,169.614 220.888 C 171.410 219.001,171.650 217.828,171.880 209.800 C 172.165 199.802,171.349 195.416,168.865 193.609 C 168.707 193.494,168.254 192.350,167.858 191.067 C 167.243 189.072,166.939 188.650,165.769 188.161 C 164.881 187.790,164.400 187.318,164.400 186.817 C 164.400 185.966,162.993 184.800,161.967 184.800 C 161.607 184.800,160.516 184.098,159.541 183.241 C 157.185 181.166,152.056 180.393,145.752 181.162 M245.236 181.274 C 242.605 181.604,242.070 181.823,240.479 183.223 C 239.494 184.090,238.393 184.800,238.033 184.800 C 237.007 184.800,235.600 185.966,235.600 186.817 C 235.600 187.318,235.119 187.790,234.231 188.161 C 233.061 188.650,232.757 189.072,232.142 191.067 C 231.746 192.350,231.293 193.494,231.135 193.609 C 230.977 193.724,230.342 194.534,229.724 195.409 L 228.600 197.000 228.474 206.400 C 228.321 217.863,228.424 218.701,230.231 220.680 C 230.994 221.516,231.725 222.683,231.854 223.273 C 232.496 226.202,239.219 231.600,242.226 231.600 C 243.433 231.600,244.000 231.770,244.000 232.130 C 244.000 234.328,250.184 235.619,253.194 234.050 C 254.091 233.582,255.106 233.200,255.450 233.200 C 255.794 233.200,256.169 232.840,256.284 232.400 C 256.456 231.742,256.830 231.600,258.388 231.600 C 259.782 231.600,260.555 231.362,261.311 230.700 C 261.876 230.205,262.978 229.350,263.758 228.800 C 264.539 228.250,265.183 227.485,265.189 227.100 C 265.195 226.715,265.436 226.400,265.725 226.400 C 266.734 226.400,268.355 224.225,268.630 222.500 C 268.805 221.411,269.110 220.800,269.480 220.800 C 270.366 220.800,271.056 219.915,271.358 218.387 C 273.127 209.457,272.567 197.541,270.267 195.189 C 269.417 194.319,268.817 193.120,268.398 191.454 C 267.865 189.329,267.599 188.908,266.422 188.317 C 265.674 187.941,264.842 187.110,264.573 186.470 C 264.071 185.277,262.364 184.400,260.541 184.400 C 260.020 184.400,258.872 183.740,257.960 182.917 C 255.715 180.888,252.074 180.418,245.236 181.274 M152.600 274.878 C 151.398 275.559,151.211 276.014,151.229 278.200 C 151.262 282.077,151.673 283.343,153.101 283.972 C 154.201 284.457,154.400 284.754,154.400 285.909 C 154.400 286.711,154.771 287.756,155.300 288.443 C 155.795 289.087,156.605 290.131,157.100 290.764 C 157.595 291.397,158.000 292.116,158.000 292.361 C 158.000 292.995,160.036 295.200,160.622 295.200 C 160.891 295.200,161.231 295.839,161.378 296.621 C 161.524 297.403,161.922 298.149,162.262 298.279 C 163.083 298.594,164.619 300.151,164.944 300.998 C 165.087 301.371,165.546 301.766,165.965 301.875 C 166.384 301.984,166.816 302.417,166.926 302.837 C 167.035 303.257,167.400 303.600,167.736 303.600 C 168.071 303.600,168.456 303.945,168.589 304.367 C 168.723 304.788,169.351 305.314,169.985 305.535 C 170.619 305.756,171.626 306.485,172.223 307.155 C 172.820 307.826,173.959 308.585,174.755 308.842 C 175.550 309.100,176.961 310.006,177.891 310.855 C 179.138 311.994,179.929 312.400,180.902 312.400 C 182.265 312.400,183.663 313.154,184.926 314.569 C 186.514 316.349,212.742 316.627,214.831 314.887 C 217.491 312.669,217.906 312.474,220.550 312.191 C 223.163 311.911,223.308 311.839,223.839 310.569 C 224.247 309.593,224.761 309.138,225.774 308.858 C 226.533 308.649,227.748 307.830,228.474 307.039 C 229.200 306.247,230.081 305.600,230.431 305.600 C 231.209 305.600,238.279 298.610,238.636 297.488 C 238.776 297.045,239.523 296.050,240.295 295.278 C 241.067 294.506,241.865 293.272,242.068 292.537 C 242.308 291.670,242.684 291.200,243.139 291.200 C 244.154 291.200,244.800 290.401,244.800 289.144 C 244.800 288.541,244.980 287.936,245.200 287.800 C 245.420 287.664,245.600 287.179,245.600 286.721 C 245.600 286.264,246.320 285.108,247.200 284.154 C 249.547 281.607,249.623 276.069,247.326 274.860 C 246.085 274.207,153.753 274.224,152.600 274.878 " stroke="none" fill="#04fc04" fill-rule="evenodd"></path><path id="path1" d="" stroke="none" fill="#08fc04" fill-rule="evenodd"></path><path id="path2" d="" stroke="none" fill="#08fc04" fill-rule="evenodd"></path><path id="path3" d="" stroke="none" fill="#08fc04" fill-rule="evenodd"></path><path id="path4" d="" stroke="none" fill="#08fc04" fill-rule="evenodd"></path></g></svg>